<svg xmlns="http://www.w3.org/2000/svg" width="31.788" height="36" viewBox="0 0 31.788 36">
  <g id="discord" transform="translate(-2.106)">
    <path id="Path_12166" data-name="Path 12166" d="M21.313,16a2,2,0,1,0,1.852,2A1.918,1.918,0,0,0,21.313,16Zm-6.626,0a2,2,0,1,0,1.852,2A1.918,1.918,0,0,0,14.687,16Z" fill="#fff"/>
    <path id="Path_12167" data-name="Path 12167" d="M30.154,0H5.828A3.727,3.727,0,0,0,2.106,3.722V28.048A3.727,3.727,0,0,0,5.828,31.77H26.415l-.962-3.322,2.324,2.142,2.2,2.015L33.894,36V3.722A3.754,3.754,0,0,0,30.154,0ZM23.147,23.51s-.654-.781-1.2-1.452a5.756,5.756,0,0,0,3.286-2.142,10.389,10.389,0,0,1-2.088,1.071,13.019,13.019,0,0,1-2.632.781,12.718,12.718,0,0,1-4.7-.018,13.822,13.822,0,0,1-2.669-.781,10.639,10.639,0,0,1-1.325-.617c-.054-.036-.109-.054-.163-.091-.036-.018-.054-.036-.073-.036-.327-.182-.508-.309-.508-.309a5.674,5.674,0,0,0,3.177,2.124c-.545.69-1.216,1.489-1.216,1.489A6.592,6.592,0,0,1,7.5,20.787a23.969,23.969,0,0,1,2.614-10.493A9,9,0,0,1,15.2,8.405l.182.218a11.911,11.911,0,0,0-4.756,2.36s.4-.218,1.071-.508a14.224,14.224,0,0,1,4.121-1.144,1.79,1.79,0,0,1,.309-.036,15.361,15.361,0,0,1,3.667-.036,15.091,15.091,0,0,1,5.464,1.725A11.921,11.921,0,0,0,20.732,8.7l.254-.29a8.959,8.959,0,0,1,5.083,1.888,23.969,23.969,0,0,1,2.614,10.493,6.653,6.653,0,0,1-5.537,2.723Z" fill="#fff"/>
  </g>
</svg>
