<svg id="Layer_1" data-name="Layer 1" xmlns="http://www.w3.org/2000/svg" xmlns:xlink="http://www.w3.org/1999/xlink" viewBox="0 0 201.26758 229.91798"><defs><style>.cls-1,.cls-10,.cls-11,.cls-2,.cls-3,.cls-4,.cls-5,.cls-6,.cls-7,.cls-8,.cls-9{fill:none;}.cls-1{stroke-width:2px;stroke:url(#New_Gradient_Swatch);}.cls-10,.cls-11,.cls-2,.cls-3,.cls-4,.cls-5,.cls-6,.cls-7,.cls-8,.cls-9{stroke-miterlimit:10;}.cls-2{stroke:url(#New_Gradient_Swatch-2);}.cls-3{stroke:url(#New_Gradient_Swatch-3);}.cls-4{stroke:url(#New_Gradient_Swatch-4);}.cls-5{stroke:url(#New_Gradient_Swatch-5);}.cls-6{stroke:url(#New_Gradient_Swatch-6);}.cls-7{stroke:url(#New_Gradient_Swatch-7);}.cls-8{stroke:url(#New_Gradient_Swatch-8);}.cls-9{stroke:url(#New_Gradient_Swatch-9);}.cls-10{stroke:url(#New_Gradient_Swatch-10);}.cls-11{stroke:url(#New_Gradient_Swatch-11);}</style><linearGradient id="New_Gradient_Swatch" x1="-506.9013" y1="104.5978" x2="-305.63373" y2="104.5978" gradientUnits="userSpaceOnUse"><stop offset="0" stop-color="#03e6bb"/><stop offset="1" stop-color="#f305fe"/></linearGradient><linearGradient id="New_Gradient_Swatch-2" x1="-379.28131" y1="-1.65323" x2="-360.87089" y2="-1.65323" xlink:href="#New_Gradient_Swatch"/><linearGradient id="New_Gradient_Swatch-3" x1="-363.15231" y1="-1.65323" x2="-344.74189" y2="-1.65323" xlink:href="#New_Gradient_Swatch"/><linearGradient id="New_Gradient_Swatch-4" x1="-347.02331" y1="-1.65323" x2="-328.61289" y2="-1.65323" xlink:href="#New_Gradient_Swatch"/><linearGradient id="New_Gradient_Swatch-5" x1="-330.89431" y1="-1.65323" x2="-312.48389" y2="-1.65323" xlink:href="#New_Gradient_Swatch"/><linearGradient id="New_Gradient_Swatch-6" x1="-331.75144" y1="209.32379" x2="-322.65231" y2="209.32379" xlink:href="#New_Gradient_Swatch"/><linearGradient id="New_Gradient_Swatch-7" x1="-323.48844" y1="209.32379" x2="-314.38931" y2="209.32379" xlink:href="#New_Gradient_Swatch"/><linearGradient id="New_Gradient_Swatch-8" x1="-498.53342" y1="215.43678" x2="-488.65426" y2="215.43678" xlink:href="#New_Gradient_Swatch"/><linearGradient id="New_Gradient_Swatch-9" x1="-490.05588" y1="215.43678" x2="-480.17672" y2="215.43678" xlink:href="#New_Gradient_Swatch"/><linearGradient id="New_Gradient_Swatch-10" x1="-481.57737" y1="215.43678" x2="-471.69821" y2="215.43678" xlink:href="#New_Gradient_Swatch"/><linearGradient id="New_Gradient_Swatch-11" x1="-473.38694" y1="215.43678" x2="-463.50778" y2="215.43678" xlink:href="#New_Gradient_Swatch"/></defs><g id="Group_54683" data-name="Group 54683"><path id="Path_200875" data-name="Path 200875" class="cls-1" d="M-505.9013,4.8658l7.11816-7.118h55.06934l1.6416,2.385h59.292l2.73633-9.494h67.74609l5.66406,7.11v207.292l-7.957,7.957h-19.542l-1.88574,5.559H-460.04974l-3.55664-7.114h-34.14649l-6.40039-6.4-1.748-1.747Z" transform="translate(506.9013 10.36119)"/><g id="Group_54680" data-name="Group 54680"><path id="Path_200878" data-name="Path 200878" class="cls-2" d="M-378.59792,1.96778l2.2998-7.242h14.75684l-2.1543,7.242Z" transform="translate(506.9013 10.36119)"/><path id="Path_200879" data-name="Path 200879" class="cls-3" d="M-362.46892,1.96778l2.2998-7.242h14.75684l-2.1543,7.242Z" transform="translate(506.9013 10.36119)"/><path id="Path_200880" data-name="Path 200880" class="cls-4" d="M-346.33992,1.96778l2.2998-7.242h14.75684l-2.1543,7.242Z" transform="translate(506.9013 10.36119)"/><path id="Path_200881" data-name="Path 200881" class="cls-5" d="M-330.21092,1.96778l2.2998-7.242h14.75684l-2.1543,7.242Z" transform="translate(506.9013 10.36119)"/></g><path id="Path_200882" data-name="Path 200882" class="cls-6" d="M-331.0679,210.96779l1.04492-3.288h6.7002l-.97852,3.288Z" transform="translate(506.9013 10.36119)"/><path id="Path_200883" data-name="Path 200883" class="cls-7" d="M-322.8049,210.96779l1.04492-3.288h6.7002l-.97852,3.288Z" transform="translate(506.9013 10.36119)"/><g id="Group_54681" data-name="Group 54681"><g id="Group_54682" data-name="Group 54682"><path id="Path_200881-2" data-name="Path 200881-2" class="cls-8" d="M-489.36322,217.04278l-1.14453-3.212h-7.332l1.07031,3.212Z" transform="translate(506.9013 10.36119)"/><path id="Path_200884" data-name="Path 200884" class="cls-9" d="M-480.88568,217.04278l-1.14453-3.212h-7.332l1.07031,3.212Z" transform="translate(506.9013 10.36119)"/><path id="Path_200885" data-name="Path 200885" class="cls-10" d="M-472.40716,217.04278l-1.14454-3.212h-7.332l1.07032,3.212Z" transform="translate(506.9013 10.36119)"/><path id="Path_200886" data-name="Path 200886" class="cls-11" d="M-464.21673,217.04278l-1.14454-3.212h-7.332l1.07032,3.212Z" transform="translate(506.9013 10.36119)"/></g></g></g></svg>