<svg xmlns="http://www.w3.org/2000/svg" width="213.65" height="30.527" viewBox="0 0 213.65 30.527">
  <g id="logo" transform="translate(-110 -84.736)">
    <g id="Group_67" data-name="Group 67" transform="translate(97 -35.264)">
      <path id="Union_35" data-name="Union 35" d="M-10298-18675.314v-15.674h19.644v4.7h-2.8v-1.867h-14.034v11.229l7.018,4.176,7.017-4.176v-5.662h2.8v7.279l-9.822,5.842Zm0-19.053V-18700h2.9v2.734h5.8V-18700h2.9v2.734h5.136V-18700h2.9v2.734h.014v2.9Z" transform="translate(10311.001 18820)" fill="#fff"/>
      <path id="Path_73" data-name="Path 73" d="M27.063-111.392l-1.4,1.324a10.669,10.669,0,0,0-3.3-2.249,8.886,8.886,0,0,0-3.5-.766,8.345,8.345,0,0,0-4.041,1.043,7.564,7.564,0,0,0-2.971,2.825,7.293,7.293,0,0,0-1.054,3.769,7.444,7.444,0,0,0,1.091,3.867A7.75,7.75,0,0,0,14.9-98.7a8.674,8.674,0,0,0,4.216,1.048,7.208,7.208,0,0,0,4.707-1.569,6.192,6.192,0,0,0,2.28-4.07H20.358v-1.74H28.13a9.049,9.049,0,0,1-2.482,6.638,8.887,8.887,0,0,1-6.576,2.458,9.883,9.883,0,0,1-7.919-3.408,9.058,9.058,0,0,1-2.243-6.068,9.3,9.3,0,0,1,1.287-4.768,9.153,9.153,0,0,1,3.53-3.451,10.285,10.285,0,0,1,5.075-1.244,11.284,11.284,0,0,1,4.315.827A12.881,12.881,0,0,1,27.063-111.392Zm4.56-3.028h1.8v10.885a22.521,22.521,0,0,0,.074,2.415,4,4,0,0,0,.625,1.783,3.686,3.686,0,0,0,1.508,1.2,4.724,4.724,0,0,0,2.047.484,4.041,4.041,0,0,0,1.716-.38,3.817,3.817,0,0,0,1.373-1.054,4.3,4.3,0,0,0,.809-1.63,13.49,13.49,0,0,0,.184-2.819V-114.42h1.8v10.885a13.254,13.254,0,0,1-.472,3.9A5.31,5.31,0,0,1,41.2-97.038a5.407,5.407,0,0,1-3.426,1.1,6.564,6.564,0,0,1-3.739-1.042,5.018,5.018,0,0,1-2.084-2.758,14.61,14.61,0,0,1-.331-3.8Zm23.744,0,8.409,18.032H61.83l-2.836-5.933H51.226l-2.809,5.933h-2.01l8.519-18.032Zm-.228,3.831-3.09,6.527h6.165Zm11.529-3.831h3.592a21.752,21.752,0,0,1,4.07.246,4.644,4.644,0,0,1,2.611,1.577,4.5,4.5,0,0,1,1.005,2.977,4.812,4.812,0,0,1-.692,2.59,4.322,4.322,0,0,1-1.979,1.688,9.1,9.1,0,0,1-3.555.583L78.2-96.388H75.975l-6.485-8.372H68.471v8.372h-1.8Zm1.8,1.765v6.129l3.106.025a7.723,7.723,0,0,0,2.67-.343,2.779,2.779,0,0,0,1.351-1.1,3.05,3.05,0,0,0,.485-1.686,2.922,2.922,0,0,0-.491-1.649,2.736,2.736,0,0,0-1.289-1.06,7.836,7.836,0,0,0-2.652-.319ZM81.808-96.388V-114.42h3.739a19.09,19.09,0,0,1,5.872.65,7.848,7.848,0,0,1,4.1,3.186A9.684,9.684,0,0,1,97-105.178a9.482,9.482,0,0,1-1.171,4.768,7.507,7.507,0,0,1-3.04,3.041,11.45,11.45,0,0,1-5.24.981Zm1.728-1.7h2.085a19.426,19.426,0,0,0,5.185-.465,5.98,5.98,0,0,0,3.2-2.382,7.332,7.332,0,0,0,1.164-4.207,7.713,7.713,0,0,0-1.263-4.458,6.357,6.357,0,0,0-3.518-2.535,21.251,21.251,0,0,0-5.577-.515H83.537Zm16.7-16.328h1.8v18.032h-1.8Zm13.3,0,8.409,18.032h-1.946l-2.836-5.933H109.39l-2.808,5.933h-2.01l8.52-18.032Zm-.228,3.831-3.09,6.527h6.165Zm11.444,14.2V-114.42h.392l12,13.822V-114.42h1.777v18.032h-.4l-11.9-13.654v13.654Zm18.559-18.032h1.8v16.291h6.938v1.741h-8.74Zm11.339,0h1.8v18.032h-1.8Zm5.945,18.032V-114.42h.392l12,13.822V-114.42h1.777v18.032h-.405l-11.9-13.654v13.654Zm18.559-18.032h1.839v6.767l7.207-6.767h2.421l-8.66,8.09,9.334,9.941h-2.4l-7.9-8.4v8.4h-1.839Z" transform="translate(35.36 241.171)" fill="#fff"/>
    </g>
  </g>
</svg>
