<svg xmlns="http://www.w3.org/2000/svg" xmlns:xlink="http://www.w3.org/1999/xlink" viewBox="0 0 346.86306 532.66879"><defs><style>.cls-1,.cls-10,.cls-2,.cls-3,.cls-4,.cls-5,.cls-6,.cls-7,.cls-8,.cls-9{fill:none;}.cls-10,.cls-2,.cls-3,.cls-4,.cls-5,.cls-6,.cls-7,.cls-8,.cls-9{stroke-miterlimit:10;stroke-width:2px;}.cls-2{stroke:url(#linear-gradient);}.cls-3{stroke:url(#linear-gradient-2);}.cls-4{stroke:url(#linear-gradient-3);}.cls-5{stroke:url(#linear-gradient-4);}.cls-6{stroke:url(#linear-gradient-5);}.cls-7{stroke:url(#linear-gradient-6);}.cls-8{stroke:url(#linear-gradient-7);}.cls-9{stroke:url(#linear-gradient-8);}.cls-10{stroke:url(#linear-gradient-9);}.cls-11{clip-path:url(#clip-path);}</style><linearGradient id="linear-gradient" x1="970.04707" y1="119.54354" x2="1237.86869" y2="119.54354" gradientTransform="matrix(0.23227, 0, 0, -2.20703, -27.79719, 349.13569)" gradientUnits="userSpaceOnUse"><stop offset="0" stop-color="#03e6bb"/><stop offset="1" stop-color="#f305fe"/></linearGradient><linearGradient id="linear-gradient-2" x1="127.66971" y1="119.64743" x2="262.8351" y2="119.64743" xlink:href="#linear-gradient"/><linearGradient id="linear-gradient-3" x1="33.11146" y1="119.42994" x2="197.51274" y2="119.42994" gradientTransform="matrix(1, 0, 0, 1, 0, 0)" xlink:href="#linear-gradient"/><linearGradient id="linear-gradient-4" x1="174.5" y1="506.35032" x2="345.86306" y2="506.35032" gradientTransform="matrix(1, 0, 0, 1, 0, 0)" xlink:href="#linear-gradient"/><linearGradient id="linear-gradient-5" x1="0" y1="268.91242" x2="346.86306" y2="268.91242" gradientTransform="matrix(1, 0, 0, 1, 0, 0)" xlink:href="#linear-gradient"/><linearGradient id="linear-gradient-6" x1="183.01592" y1="519.15924" x2="206.22611" y2="519.15924" gradientTransform="matrix(1, 0, 0, 1, 0, 0)" xlink:href="#linear-gradient"/><linearGradient id="linear-gradient-7" x1="214.88854" y1="519.15924" x2="238.09873" y2="519.15924" gradientTransform="matrix(1, 0, 0, 1, 0, 0)" xlink:href="#linear-gradient"/><linearGradient id="linear-gradient-8" x1="246.30255" y1="519.15924" x2="269.51274" y2="519.15924" gradientTransform="matrix(1, 0, 0, 1, 0, 0)" xlink:href="#linear-gradient"/><linearGradient id="linear-gradient-9" x1="275.88217" y1="519.15924" x2="299.09236" y2="519.15924" gradientTransform="matrix(1, 0, 0, 1, 0, 0)" xlink:href="#linear-gradient"/><clipPath id="clip-path" transform="translate(0 5.15605)"><rect class="cls-1" x="34.16879" y="1" width="162.34395" height="185.84395"/></clipPath></defs><g id="Layer_2" data-name="Layer 2"><g id="Layer_1-2" data-name="Layer 1"><g id="Layer_2-2" data-name="Layer 2"><line class="cls-2" x1="197.51592" y1="85.29936" x2="259.72293" y2="85.29936"/><line class="cls-3" x1="1.85669" y1="85.07006" x2="33.25159" y2="85.07006"/><polyline class="cls-4" points="34.111 46.777 34.111 192 196.513 192 196.513 45.86"/><line class="cls-5" x1="174.5" y1="506.35032" x2="345.86306" y2="506.35032"/><polygon class="cls-6" points="1 505.605 1 46.777 34.169 46.777 34.169 6.156 196.513 6.156 196.513 45.86 242.143 45.86 260.487 61.911 260.487 85.299 344.869 85.299 345.863 85.299 345.863 520.624 334.818 531.669 174.5 531.669 174.5 506.35 1 506.35 1 505.605"/><rect class="cls-7" x="184.01592" y="513.14013" width="21.21019" height="12.03822"/><rect class="cls-8" x="215.88854" y="513.14013" width="21.21019" height="12.03822"/><rect class="cls-9" x="247.30255" y="513.14013" width="21.21019" height="12.03822"/><rect class="cls-10" x="276.88217" y="513.14013" width="21.21019" height="12.03822"/><g class="cls-11"><image width="500" height="500" transform="translate(24.0651 3.33828) scale(0.38296)" xlink:href="../../arjun.jpg"/><image width="500" height="500" transform="translate(29.11306) scale(0.38525)" xlink:href="../../kamesh.png"/><image width="500" height="500" transform="translate(14.73248 2.36545) scale(0.38685)" xlink:href="../../ram_3.jpg"/></g></g></g></g></svg>